<?xml version="1.0" encoding="utf-8"?>
<!-- Generator: Adobe Illustrator 23.0.1, SVG Export Plug-In . SVG Version: 6.00 Build 0)  -->
<svg version="1.1" id="Layer_1" xmlns="http://www.w3.org/2000/svg" xmlns:xlink="http://www.w3.org/1999/xlink" x="0px" y="0px"
	 viewBox="0 0 748 175" style="enable-background:new 0 0 748 175;" xml:space="preserve">
<style type="text/css">
	.st0{display:none;fill:#FFFFFF;}
	.st1{fill:#32464F;}
	.st2{fill:#FF6100;}
</style>
<rect x="-152" y="-295" class="st0" width="1024" height="768"/>
<g>
	<g>
		<path class="st1" d="M251.26,66.11l-6.88,8.57c-5.08-5.48-12.36-8.87-19.43-8.87c-13.95,0-24.91,10.76-24.91,24.52
			c0,13.75,10.96,24.61,24.91,24.61c6.98,0,14.15-3.19,19.43-8.27l6.98,7.77c-7.08,6.98-17.14,11.46-27.01,11.46
			c-20.43,0-36.27-15.45-36.27-35.48c0-19.83,16.04-35.08,36.67-35.08C234.62,55.35,244.48,59.43,251.26,66.11z"/>
	</g>
	<g>
		<g>
			<path class="st1" d="M312.19,92.42v32.98h-11.46v-29.8c0-7.97-4.78-12.86-12.76-12.86c-9.47,0.1-15.15,7.17-15.15,16.54v26.11
				h-11.46V51.46h11.46v31.29c3.79-7.47,10.56-10.76,19.63-10.76C304.81,71.99,312.19,79.76,312.19,92.42z"/>
		</g>
	</g>
	<g>
		<g>
			<path class="st1" d="M357.57,118.93c-3.79,4.68-9.87,6.98-17.54,6.98c-11.46,0-18.64-7.08-18.64-16.45
				c0-9.67,7.27-15.84,20.03-15.94h16.05v-1.59c0-6.68-4.28-10.66-12.66-10.66c-5.08,0-10.36,1.79-15.65,5.38l-4.68-7.97
				c7.38-4.38,12.76-6.68,22.82-6.68c13.65,0,21.33,6.98,21.43,18.64l0.1,34.78h-11.26V118.93z M357.47,106.77v-4.88h-14.35
				c-7.47,0-10.96,1.99-10.96,7.08c0,4.78,3.89,7.87,10.26,7.87C350.59,116.84,356.87,112.55,357.47,106.77z"/>
		</g>
	</g>
	<g>
		<g>
			<path class="st1" d="M393.02,59.08c0,3.99-2.89,6.88-6.68,6.88c-3.79,0-6.68-2.89-6.68-6.88c0-4.09,2.89-6.98,6.68-6.98
				C390.14,52.1,393.02,54.99,393.02,59.08z M380.66,125.41V72.39h11.36v53.02H380.66z"/>
		</g>
	</g>
	<g>
		<g>
			<path class="st1" d="M454.43,92.42v32.98h-11.46v-29.8c0-7.97-4.78-12.86-12.76-12.86c-8.77,0.1-14.25,6.18-15.05,14.45v28.2
				h-11.46V72.39h11.46v10.16c3.79-7.37,10.56-10.56,19.53-10.56C447.06,71.99,454.43,79.76,454.43,92.42z"/>
		</g>
	</g>
	<g>
		<g>
			<path class="st1" d="M502.4,77.27l-4.18,8.47c-4.69-2.89-10.57-4.68-15.25-4.68c-4.49,0-7.78,1.49-7.78,5.28
				c0,9.77,28.2,4.49,28.1,23.72c0,10.86-9.67,15.75-20.33,15.75c-7.78,0-16.04-2.59-21.33-7.37l4.08-8.17
				c4.58,4.08,11.96,6.58,17.74,6.58c4.88,0,8.67-1.7,8.67-5.68c0-10.86-27.9-4.78-27.8-23.92c0-10.76,9.37-15.35,19.53-15.35
				C490.54,71.89,497.62,73.88,502.4,77.27z"/>
		</g>
	</g>
	<g>
		<g>
			<path class="st1" d="M567.16,99.1c0,15.84-9.96,26.71-25.12,26.71c-8.47,0-14.85-3.39-18.73-9.57v28.5h-11.46V72.39h11.46v9.17
				c3.89-6.18,10.27-9.57,18.54-9.57C556.89,71.99,567.16,82.95,567.16,99.1z M555.6,98.7c0-9.87-6.67-17.14-16.14-17.14
				c-9.47,0-16.14,7.17-16.14,17.14c0,10.26,6.68,17.34,16.14,17.34C548.92,116.04,555.6,108.87,555.6,98.7z"/>
		</g>
	</g>
	<g>
		<g>
			<path class="st1" d="M610.9,118.93c-3.78,4.68-9.86,6.98-17.54,6.98c-11.46,0-18.64-7.08-18.64-16.45
				c0-9.67,7.28-15.84,20.04-15.94h16.04v-1.59c0-6.68-4.29-10.66-12.66-10.66c-5.08,0-10.36,1.79-15.65,5.38l-4.68-7.97
				c7.37-4.38,12.76-6.68,22.82-6.68c13.65,0,21.33,6.98,21.43,18.64l0.1,34.78H610.9V118.93z M610.8,106.77v-4.88h-14.35
				c-7.48,0-10.96,1.99-10.96,7.08c0,4.78,3.88,7.87,10.26,7.87C603.93,116.84,610.21,112.55,610.8,106.77z"/>
		</g>
	</g>
	<g>
		<g>
			<path class="st1" d="M643.71,82.95c3.59-7.17,9.97-10.96,18.34-10.96v10.96c-10.66-0.6-17.44,5.68-18.34,14.75v27.7h-11.46V72.39
				h11.46V82.95z"/>
		</g>
	</g>
	<g>
		<g>
			<path class="st1" d="M683.47,110.56v14.85h-11.46V51.46h11.46v44.65l23.42-23.72h13.16l-19.63,20.53l21.13,32.49h-13.55
				l-15.55-24.31L683.47,110.56z"/>
		</g>
	</g>
	<g>
		<g>
			<g>
				<path class="st2" d="M138.22,99.75c-2.05,0-3.71-1.66-3.71-3.72c0-2.05,1.66-3.72,3.71-3.72c2.05,0,3.71,1.66,3.71,3.72
					C141.93,98.08,140.27,99.75,138.22,99.75z"/>
			</g>
		</g>
	</g>
	<g>
		<g>
			<g>
				<line class="st2" x1="33.12" y1="84.65" x2="51.14" y2="89.92"/>
			</g>
			<g>
				<polygon class="st2" points="51.03,90.31 33.01,85.04 33.24,84.27 51.25,89.53 				"/>
			</g>
		</g>
	</g>
	<g>
		<g>
			<g>
				<line class="st2" x1="39.95" y1="61.85" x2="58.64" y2="66.3"/>
			</g>
			<g>
				
					<rect x="48.9" y="54.47" transform="matrix(0.2317 -0.9728 0.9728 0.2317 -24.4576 97.1866)" class="st2" width="0.81" height="19.21"/>
			</g>
		</g>
	</g>
	<g>
		<g>
			<g>
				<line class="st2" x1="39.95" y1="64.13" x2="51.5" y2="85.85"/>
			</g>
			<g>
				
					<rect x="45.32" y="62.69" transform="matrix(0.8828 -0.4698 0.4698 0.8828 -29.8681 30.2701)" class="st2" width="0.8" height="24.6"/>
			</g>
		</g>
	</g>
	<g>
		<g>
			<g>
				<line class="st2" x1="56.18" y1="45.03" x2="60.93" y2="64.01"/>
			</g>
			<g>
				<polygon class="st2" points="61.32,63.91 60.54,64.11 55.79,45.13 56.57,44.94 				"/>
			</g>
		</g>
	</g>
	<g>
		<g>
			<g>
				<line class="st2" x1="58.74" y1="45.32" x2="82.74" y2="56.59"/>
			</g>
			<g>
				
					<rect x="70.34" y="37.7" transform="matrix(0.4249 -0.9052 0.9052 0.4249 -5.4449 93.3374)" class="st2" width="0.81" height="26.52"/>
			</g>
		</g>
	</g>
	<g>
		<g>
			<g>
				<line class="st2" x1="77.52" y1="37.34" x2="64.46" y2="64.82"/>
			</g>
			<g>
				<polygon class="st2" points="64.82,64.99 64.09,64.64 77.16,37.17 77.88,37.51 				"/>
			</g>
		</g>
	</g>
	<g>
		<g>
			<g>
				<line class="st2" x1="78.94" y1="36.48" x2="83.66" y2="53.68"/>
			</g>
			<g>
				
					<rect x="80.9" y="36.16" transform="matrix(0.9644 -0.2645 0.2645 0.9644 -9.0275 23.107)" class="st2" width="0.8" height="17.83"/>
			</g>
		</g>
	</g>
	<g>
		<g>
			<g>
				<line class="st2" x1="102.57" y1="38.48" x2="84.83" y2="56.81"/>
			</g>
			<g>
				<polygon class="st2" points="85.12,57.09 84.54,56.53 102.28,38.2 102.86,38.76 				"/>
			</g>
		</g>
	</g>
	<g>
		<g>
			<g>
				<line class="st2" x1="122.85" y1="51" x2="85.68" y2="57.67"/>
			</g>
			<g>
				
					<rect x="85.39" y="53.93" transform="matrix(0.9843 -0.1766 0.1766 0.9843 -7.9578 19.2727)" class="st2" width="37.76" height="0.81"/>
			</g>
		</g>
	</g>
	<g>
		<g>
			<g>
				<path class="st2" d="M123.42,51.57c-11.11,10.82-22.23,21.65-33.34,32.47"/>
			</g>
			<g>
				<path class="st2" d="M90.21,84.47l33.49-32.62l-0.56-0.58L89.38,84.15C89.67,84.22,89.94,84.32,90.21,84.47z"/>
			</g>
		</g>
	</g>
	<g>
		<g>
			<g>
				<line class="st2" x1="135.75" y1="71.71" x2="107.85" y2="68.26"/>
			</g>
			<g>
				
					<rect x="121.39" y="55.92" transform="matrix(0.123 -0.9924 0.9924 0.123 37.3635 182.2481)" class="st2" width="0.81" height="28.12"/>
			</g>
		</g>
	</g>
	<g>
		<g>
			<g>
				<path class="st2" d="M135.75,71.71c-14.53,5.08-29.06,10.16-43.59,15.24"/>
			</g>
			<g>
				<path class="st2" d="M92.16,87.38l43.72-15.28l-0.27-0.76L91.91,86.61C92.01,86.87,92.09,87.12,92.16,87.38z"/>
			</g>
		</g>
	</g>
	<g>
		<g>
			<g>
				<line class="st2" x1="135.59" y1="71.56" x2="116.96" y2="88.99"/>
			</g>
			<g>
				<polygon class="st2" points="135.87,71.85 117.24,89.29 116.69,88.7 135.32,71.26 				"/>
			</g>
		</g>
	</g>
	<g>
		<g>
			<g>
				<line class="st2" x1="137.3" y1="94.93" x2="119" y2="91.03"/>
			</g>
			<g>
				
					<rect x="127.75" y="83.62" transform="matrix(0.2083 -0.9781 0.9781 0.2083 10.5118 198.9471)" class="st2" width="0.81" height="18.72"/>
			</g>
		</g>
	</g>
	<g>
		<g>
			<g>
				<line class="st2" x1="137.47" y1="96.78" x2="109.5" y2="110.59"/>
			</g>
			<g>
				<polygon class="st2" points="137.65,97.15 109.68,110.96 109.32,110.23 137.29,96.42 				"/>
			</g>
		</g>
	</g>
	<g>
		<g>
			<g>
				<line class="st2" x1="117.83" y1="93.65" x2="131.48" y2="118.17"/>
			</g>
			<g>
				<polygon class="st2" points="131.83,117.98 131.13,118.37 117.48,93.84 118.18,93.45 				"/>
			</g>
		</g>
	</g>
	<g>
		<g>
			<g>
				<line class="st2" x1="130.35" y1="118.16" x2="108.19" y2="112.97"/>
			</g>
			<g>
				
					<rect x="118.87" y="104.18" transform="matrix(0.2282 -0.9736 0.9736 0.2282 -20.4626 205.3129)" class="st2" width="0.81" height="22.76"/>
			</g>
		</g>
	</g>
	<g>
		<g>
			<g>
				<line class="st2" x1="113.65" y1="134.09" x2="107.72" y2="115.46"/>
			</g>
			<g>
				
					<rect x="110.28" y="114.99" transform="matrix(0.9523 -0.3051 0.3051 0.9523 -32.788 39.7158)" class="st2" width="0.81" height="19.56"/>
			</g>
		</g>
	</g>
	<g>
		<g>
			<g>
				<line class="st2" x1="113" y1="134.98" x2="85.49" y2="122.05"/>
			</g>
			<g>
				
					<rect x="98.84" y="113.32" transform="matrix(0.4253 -0.9051 0.9051 0.4253 -59.2797 163.6795)" class="st2" width="0.81" height="30.39"/>
			</g>
		</g>
	</g>
	<g>
		<g>
			<g>
				<line class="st2" x1="85.39" y1="122.72" x2="91.27" y2="144.22"/>
			</g>
			<g>
				
					<rect x="87.93" y="122.33" transform="matrix(0.9645 -0.2641 0.2641 0.9645 -32.1159 28.0705)" class="st2" width="0.81" height="22.29"/>
			</g>
		</g>
	</g>
	<g>
		<g>
			<g>
				<line class="st2" x1="82.38" y1="124.02" x2="67.36" y2="139.58"/>
			</g>
			<g>
				<polygon class="st2" points="67.65,139.86 67.07,139.3 82.09,123.74 82.67,124.3 				"/>
			</g>
		</g>
	</g>
	<g>
		<g>
			<g>
				<path class="st2" d="M78.02,95.93c-10.22,10.41-20.43,20.82-30.65,31.23"/>
			</g>
			<g>
				<path class="st2" d="M77.92,95.46l-30.84,31.42l0.58,0.57L78.52,96C78.3,95.84,78.1,95.65,77.92,95.46z"/>
			</g>
		</g>
	</g>
	<g>
		<g>
			<g>
				<line class="st2" x1="66.32" y1="138.97" x2="63.15" y2="116.05"/>
			</g>
			<g>
				<polygon class="st2" points="66.72,138.92 65.92,139.03 62.75,116.1 63.55,115.99 				"/>
			</g>
		</g>
	</g>
	<g>
		<g>
			<g>
				<line class="st2" x1="46.91" y1="125.92" x2="52.05" y2="94.67"/>
			</g>
			<g>
				
					<rect x="33.64" y="109.89" transform="matrix(0.1623 -0.9867 0.9867 0.1623 -67.3852 141.2217)" class="st2" width="31.68" height="0.81"/>
			</g>
		</g>
	</g>
	<g>
		<g>
			<g>
				<line class="st2" x1="35.49" y1="107.43" x2="75.78" y2="92.69"/>
			</g>
			<g>
				
					<rect x="34.18" y="99.66" transform="matrix(0.9391 -0.3435 0.3435 0.9391 -30.9883 25.2011)" class="st2" width="42.9" height="0.81"/>
			</g>
		</g>
	</g>
	<g>
		<g>
			<g>
				<line class="st2" x1="33.2" y1="107.72" x2="51.14" y2="92.2"/>
			</g>
			<g>
				<polygon class="st2" points="51.4,92.5 33.46,108.02 32.94,107.41 50.88,91.89 				"/>
			</g>
		</g>
	</g>
	<g>
		<g>
			<g>
				<line class="st2" x1="33.2" y1="107.72" x2="58.54" y2="111.01"/>
			</g>
			<g>
				
					<rect x="45.47" y="96.59" transform="matrix(0.129 -0.9916 0.9916 0.129 -68.4973 140.744)" class="st2" width="0.81" height="25.55"/>
			</g>
		</g>
	</g>
	<g>
		<g>
			<g>
				<path class="st2" d="M90.69,147.35c-2.05,0-3.71-1.66-3.71-3.71c0-2.05,1.66-3.72,3.71-3.72c2.05,0,3.71,1.66,3.71,3.72
					C94.4,145.68,92.74,147.35,90.69,147.35z"/>
			</g>
		</g>
	</g>
	<g>
		<g>
			<g>
				<path class="st2" d="M89.78,120.63c0,3.16-2.56,5.72-5.72,5.72c-3.16,0-5.72-2.56-5.72-5.72c0-3.16,2.56-5.73,5.72-5.73
					C87.22,114.91,89.78,117.47,89.78,120.63z"/>
			</g>
		</g>
	</g>
	<g>
		<g>
			<g>
				<path class="st2" d="M64.5,143.43c-1.71-1.13-2.19-3.43-1.06-5.15c1.13-1.71,3.43-2.19,5.14-1.06c1.71,1.13,2.19,3.43,1.06,5.15
					C68.51,144.08,66.21,144.56,64.5,143.43z"/>
			</g>
		</g>
	</g>
	<g>
		<g>
			<g>
				<path class="st2" d="M46.86,131.96c-2.05,0-3.71-1.66-3.71-3.72c0-2.05,1.66-3.72,3.71-3.72c2.05,0,3.71,1.66,3.71,3.72
					C50.57,130.29,48.91,131.96,46.86,131.96z"/>
			</g>
		</g>
	</g>
	<g>
		<g>
			<g>
				<path class="st2" d="M52.84,96.06c-3.16,0-5.72-2.56-5.72-5.73c0-3.16,2.56-5.72,5.72-5.72c3.16,0,5.72,2.56,5.72,5.73
					C58.56,93.49,56,96.06,52.84,96.06z"/>
			</g>
		</g>
	</g>
	<g>
		<g>
			<g>
				<path class="st2" d="M33.2,111.43c-2.05,0-3.71-1.66-3.71-3.72c0-2.05,1.66-3.71,3.71-3.71c2.05,0,3.71,1.66,3.71,3.71
					C36.91,109.77,35.25,111.43,33.2,111.43z"/>
			</g>
		</g>
	</g>
	<g>
		<g>
			<g>
				<path class="st2" d="M65.99,63.28c2.23,2.23,2.23,5.86,0,8.1c-2.23,2.23-5.85,2.23-8.08,0c-2.23-2.23-2.23-5.86,0-8.1
					C60.14,61.04,63.76,61.04,65.99,63.28z"/>
			</g>
		</g>
	</g>
	<g>
		<g>
			<g>
				<path class="st2" d="M55.69,47.3c-2.05,0-3.71-1.66-3.71-3.71c0-2.05,1.66-3.72,3.71-3.72c2.05,0,3.71,1.66,3.71,3.72
					C59.4,45.64,57.73,47.3,55.69,47.3z"/>
			</g>
		</g>
	</g>
	<g>
		<g>
			<g>
				<path class="st2" d="M38.61,64.97c-2.05,0-3.71-1.66-3.71-3.71c0-2.05,1.66-3.72,3.71-3.72c2.05,0,3.71,1.66,3.71,3.72
					C42.32,63.31,40.66,64.97,38.61,64.97z"/>
			</g>
		</g>
	</g>
	<g>
		<g>
			<g>
				<path class="st2" d="M89.38,57.35c0,3.16-2.56,5.73-5.72,5.73c-3.16,0-5.72-2.56-5.72-5.73c0-3.16,2.56-5.73,5.72-5.73
					C86.82,51.62,89.38,54.19,89.38,57.35z"/>
			</g>
		</g>
	</g>
	<g>
		<g>
			<g>
				<path class="st2" d="M110.96,71.38c-2.23,2.23-5.85,2.23-8.08,0c-2.23-2.23-2.23-5.86,0-8.1c2.23-2.24,5.85-2.24,8.08,0
					C113.19,65.51,113.19,69.14,110.96,71.38z"/>
			</g>
		</g>
	</g>
	<g>
		<g>
			<g>
				<path class="st2" d="M122.85,54.71c-2.05,0-3.71-1.66-3.71-3.71c0-2.05,1.66-3.72,3.71-3.72c2.05,0,3.71,1.66,3.71,3.72
					C126.56,53.05,124.9,54.71,122.85,54.71z"/>
			</g>
		</g>
	</g>
	<g>
		<g>
			<g>
				<path class="st2" d="M116.03,95.65c-3.16,0-5.72-2.56-5.72-5.73c0-3.16,2.56-5.73,5.72-5.73c3.16,0,5.72,2.56,5.72,5.73
					C121.75,93.09,119.19,95.65,116.03,95.65z"/>
			</g>
		</g>
	</g>
	<g>
		<g>
			<g>
				<path class="st2" d="M135.66,75.52c-2.05,0-3.71-1.66-3.71-3.71c0-2.05,1.66-3.72,3.71-3.72c2.05,0,3.71,1.66,3.71,3.72
					C139.37,73.86,137.71,75.52,135.66,75.52z"/>
			</g>
		</g>
	</g>
	<g>
		<g>
			<g>
				<path class="st2" d="M113.75,139.65c-2.05,0-3.71-1.66-3.71-3.71c0-2.05,1.66-3.72,3.71-3.72c2.05,0,3.71,1.66,3.71,3.72
					C117.45,137.99,115.79,139.65,113.75,139.65z"/>
			</g>
		</g>
	</g>
	<g>
		<g>
			<g>
				<path class="st2" d="M130.82,122.55c-2.05,0-3.71-1.66-3.71-3.71c0-2.05,1.66-3.72,3.71-3.72c2.05,0,3.71,1.66,3.71,3.72
					C134.53,120.89,132.87,122.55,130.82,122.55z"/>
			</g>
		</g>
	</g>
	<g>
		<g>
			<g>
				<path class="st2" d="M110.96,107.74c2.23,2.24,2.23,5.86,0,8.1c-2.23,2.24-5.85,2.24-8.08,0c-2.23-2.23-2.23-5.86,0-8.1
					C105.11,105.51,108.73,105.51,110.96,107.74z"/>
			</g>
		</g>
	</g>
	<g>
		<g>
			<g>
				<path class="st2" d="M102.36,42.17c-2.05,0-3.71-1.66-3.71-3.72c0-2.05,1.66-3.72,3.71-3.72c2.05,0,3.71,1.66,3.71,3.72
					C106.07,40.51,104.41,42.17,102.36,42.17z"/>
			</g>
		</g>
	</g>
	<g>
		<g>
			<g>
				<path class="st2" d="M66.56,116.41c-2.23,2.23-5.85,2.23-8.08,0c-2.23-2.24-2.23-5.86,0-8.1c2.23-2.23,5.85-2.23,8.08,0
					C68.8,110.55,68.8,114.18,66.56,116.41z"/>
			</g>
		</g>
	</g>
	<g>
		<g>
			<g>
				<path class="st2" d="M76.09,39.17c-1.71-1.13-2.18-3.43-1.06-5.15c1.13-1.71,3.43-2.19,5.14-1.06c1.71,1.13,2.19,3.43,1.06,5.15
					C80.11,39.82,77.81,40.29,76.09,39.17z"/>
			</g>
		</g>
	</g>
	<g>
		<g>
			<g>
				<g>
					<path class="st2" d="M30.64,87.21c-2.05,0-3.71-1.66-3.71-3.72c0-2.05,1.66-3.72,3.71-3.72s3.71,1.66,3.71,3.72
						C34.35,85.54,32.69,87.21,30.64,87.21z"/>
				</g>
			</g>
		</g>
	</g>
	<g>
		<g>
			<path class="st2" d="M88.57,96c-0.08-0.02-0.16-0.05-0.24-0.08c-0.04,0.03-0.09,0.07-0.13,0.1l25.32,42.02l0.28-0.17L88.57,96z"
				/>
			<path class="st2" d="M80.92,83.49c0.04-0.01,0.07-0.01,0.11-0.02L56.95,43.5l-0.28,0.17l24,39.84
				C80.75,83.51,80.83,83.49,80.92,83.49z"/>
		</g>
	</g>
	<g>
		<g>
			<path class="st2" d="M102.43,37.77L86.4,83.34c0.11,0.03,0.21,0.06,0.32,0.09l15.58-44.29l4.24,28.74l0.33-0.05L102.43,37.77z"/>
			<path class="st2" d="M81.49,97.3l-15.11,42.96l0.31,0.11l15.13-43.01C81.71,97.35,81.6,97.33,81.49,97.3z"/>
		</g>
	</g>
	<g>
		<g>
			<path class="st2" d="M76.85,84.94L38.7,61.12l-0.17,0.28l38.09,23.79C76.69,85.1,76.76,85.02,76.85,84.94z"/>
			<path class="st2" d="M92.3,94.59c-0.06,0.09-0.12,0.18-0.19,0.27l38.63,24.12l0.17-0.28L92.3,94.59z"/>
		</g>
	</g>
	<path class="st2" d="M83.83,78.36L72.6,84.57v12.41l11.23,6.21l11.23-6.21V84.57L83.83,78.36z M90.85,94.29l-7.02,3.61l-7.02-3.61
		v-7.23l7.02-3.61l7.02,3.61V94.29z"/>
	<g>
		<g>
			<polygon class="st2" points="30.72,83.64 30.57,83.34 61.88,67.18 62.03,67.47 			"/>
		</g>
	</g>
	<g>
		<g>
			<polygon class="st2" points="91.03,144.39 90.74,144.25 106.77,111.72 107.07,111.87 			"/>
		</g>
	</g>
	<rect x="83.43" y="98.5" class="st2" width="0.57" height="21.71"/>
	<rect x="83.43" y="59.08" class="st2" width="0.57" height="21.71"/>
	<rect x="92.56" y="89.93" class="st2" width="22.25" height="0.57"/>
	<rect x="53.2" y="89.93" class="st2" width="22.25" height="0.57"/>
</g>
</svg>
